<?xml version="1.0" standalone="no"?>
<!DOCTYPE svg PUBLIC "-//W3C//DTD SVG 20010904//EN"
 "http://www.w3.org/TR/2001/REC-SVG-20010904/DTD/svg10.dtd">
<svg version="1.0" xmlns="http://www.w3.org/2000/svg"
 width="300.000000pt" height="294.000000pt" viewBox="0 0 300.000000 294.000000"
 preserveAspectRatio="xMidYMid meet">
<metadata>
Created by potrace 1.10, written by Peter Selinger 2001-2011
</metadata>
<g transform="translate(0.000000,294.000000) scale(0.100000,-0.100000)"
fill="#000000" stroke="none">
<path d="M807 2905 c-9 -19 -13 -35 -9 -35 9 0 36 59 30 65 -2 3 -12 -11 -21
-30z"/>
<path d="M2994 2830 c0 -63 1 -89 3 -57 2 31 2 83 0 115 -2 31 -3 5 -3 -58z"/>
<path d="M2790 2919 c0 -5 -4 -8 -9 -5 -5 3 -14 -1 -20 -8 -10 -12 -8 -13 11
-8 31 8 56 32 34 32 -9 0 -16 -5 -16 -11z"/>
<path d="M2460 2879 c0 -11 5 -17 10 -14 6 3 10 13 10 21 0 8 -4 14 -10 14 -5
0 -10 -9 -10 -21z"/>
<path d="M2680 2874 c0 -3 7 -12 15 -20 13 -13 15 -13 15 -1 0 8 -7 17 -15 21
-8 3 -15 3 -15 0z"/>
<path d="M212 2756 c7 -7 19 -11 27 -8 11 4 10 7 -5 13 -29 12 -36 10 -22 -5z"/>
<path d="M1237 2720 c-27 -5 -52 -12 -55 -16 -4 -4 9 -4 28 0 19 4 69 9 110
12 90 5 72 -6 -55 -37 -95 -22 -334 -104 -349 -119 -11 -11 14 -4 184 53 233
77 481 110 643 86 l72 -11 60 -80 c33 -44 65 -88 70 -97 6 -9 12 -18 15 -21
18 -18 130 -161 130 -166 0 -3 -4 -4 -10 -2 -14 5 -368 357 -363 362 2 2 -3 6
-12 9 -32 13 -12 -16 70 -97 l84 -85 -37 -6 c-83 -13 -270 -84 -245 -92 7 -3
36 6 65 20 52 24 133 49 194 60 29 6 38 -1 118 -82 47 -48 87 -87 89 -85 2 2
25 -17 52 -41 28 -25 53 -45 58 -45 15 0 5 -26 -23 -60 l-30 -34 0 52 c0 32
-4 51 -10 47 -5 -3 -7 -29 -4 -58 l5 -53 -104 -132 c-58 -72 -124 -159 -148
-193 -24 -33 -58 -77 -75 -98 -59 -70 -85 -109 -76 -115 5 -3 59 61 120 142
187 250 263 347 278 355 8 4 14 13 14 19 0 18 70 98 86 98 8 0 12 5 9 10 -4 6
23 44 59 84 36 41 66 78 66 82 -1 5 -33 -26 -73 -69 l-72 -78 -52 68 c-28 37
-78 102 -110 143 -106 136 -163 220 -151 220 22 0 161 -64 223 -103 52 -33 50
-27 -5 16 -37 29 -161 87 -230 108 -66 21 -95 24 -244 24 -94 0 -157 3 -140 6
43 10 -173 8 -229 -1z"/>
<path d="M1065 2693 c-11 -2 -31 -6 -44 -9 -13 -3 -22 -7 -19 -9 2 -2 37 2 78
10 42 7 59 13 40 13 -19 0 -44 -2 -55 -5z"/>
<path d="M915 2670 c-22 -4 -43 -6 -47 -3 -5 2 -8 -1 -8 -6 0 -15 46 -13 95 4
44 14 22 17 -40 5z"/>
<path d="M1460 2660 c-8 -5 -11 -12 -7 -16 4 -4 13 -2 19 4 15 15 7 24 -12 12z"/>
<path d="M1357 2608 c-7 -4 12 -8 41 -8 28 0 52 2 52 4 0 8 -81 11 -93 4z"/>
<path d="M1275 2590 c-14 -7 -8 -8 20 -3 22 3 42 7 44 9 9 8 -45 2 -64 -6z"/>
<path d="M835 2564 c-66 -24 -64 -36 3 -13 59 20 77 30 50 28 -7 0 -31 -7 -53
-15z"/>
<path d="M1355 2572 c-26 -4 -22 -6 30 -17 66 -14 80 -11 51 11 -20 14 -27 15
-81 6z"/>
<path d="M2433 2541 c-61 -61 -80 -86 -87 -117 -7 -27 -6 -26 26 13 18 23 53
65 76 92 51 60 41 68 -15 12z"/>
<path d="M2993 2530 c0 -30 2 -43 4 -27 2 15 2 39 0 55 -2 15 -4 2 -4 -28z"/>
<path d="M2506 2557 c3 -8 -18 -37 -50 -71 -31 -31 -56 -61 -56 -67 0 -5 -15
-16 -32 -25 -34 -16 -49 -35 -117 -144 -23 -36 -68 -92 -101 -125 -33 -33 -60
-63 -60 -67 0 -4 -31 -42 -70 -85 l-70 -77 32 -33 c33 -35 51 -43 42 -19 -3 7
-15 18 -26 23 -19 8 -16 15 53 91 84 94 105 107 198 124 36 6 60 13 52 16 -7
2 -37 -1 -65 -7 -87 -19 -96 -20 -96 -10 0 6 14 24 32 42 l31 32 -17 -30 c-15
-26 -13 -25 14 7 l32 38 44 -31 c24 -16 44 -34 44 -39 0 -6 5 -10 11 -10 6 0
26 -12 44 -26 19 -14 39 -23 45 -19 6 4 9 1 8 -7 -2 -7 5 -12 14 -12 10 1 16
-2 15 -7 -3 -12 107 -79 113 -69 3 5 21 0 40 -12 112 -68 223 -129 228 -124 7
8 15 3 -140 91 -76 43 -138 82 -138 87 0 4 -10 8 -22 8 -22 -1 -23 -1 -4 -15
11 -8 15 -15 9 -15 -12 0 -31 21 -31 35 0 5 -6 11 -13 14 -7 2 -9 -1 -4 -9 5
-9 4 -11 -4 -6 -6 4 -9 11 -6 16 3 5 -33 30 -80 57 -47 26 -85 51 -85 56 0 4
17 -2 37 -13 21 -11 41 -20 45 -20 4 0 40 -15 80 -33 40 -18 89 -39 108 -46
137 -50 196 -74 206 -84 39 -42 104 -259 123 -412 11 -86 30 -612 26 -723 -1
-29 2 -55 7 -58 11 -7 7 569 -4 671 -33 301 -78 444 -188 599 -53 74 -192 214
-223 225 -7 2 23 -29 66 -69 86 -81 176 -190 155 -190 -7 0 -60 18 -118 41
l-105 40 -38 77 c-41 82 -57 112 -73 133 -6 8 -16 28 -23 44 l-13 30 32 -30
c26 -24 30 -26 21 -8 -11 21 -52 55 -81 66 -10 4 -9 6 6 6 11 1 29 10 38 20
10 11 25 17 34 14 15 -4 15 -3 2 6 -13 9 -8 17 27 51 44 42 63 83 44 94 -6 4
-9 1 -5 -7z m-94 -282 c67 -124 108 -205 104 -205 -2 0 -35 13 -72 28 -38 16
-99 41 -137 57 -59 24 -66 29 -55 43 10 12 10 14 1 8 -9 -5 -11 -2 -7 8 3 9
12 16 18 16 7 0 28 27 46 60 22 39 40 60 49 58 9 -2 33 -35 53 -73z"/>
<path d="M740 2536 c0 -9 7 -16 16 -16 17 0 14 22 -4 28 -7 2 -12 -3 -12 -12z"/>
<path d="M950 2530 c-61 -6 -59 -7 35 -8 64 0 93 3 80 8 -22 9 -21 9 -115 0z"/>
<path d="M1460 2530 c0 -4 11 -15 24 -24 23 -15 25 -14 23 3 -1 18 -47 38 -47
21z"/>
<path d="M115 2510 c3 -5 1 -10 -4 -10 -6 0 -11 -4 -11 -10 0 -5 7 -10 15 -10
8 0 15 9 15 20 0 11 -5 20 -11 20 -5 0 -7 -4 -4 -10z"/>
<path d="M695 2485 l-30 -15 35 7 c55 9 65 9 63 -4 -2 -8 4 -10 14 -6 14 6 14
8 -3 20 -22 16 -41 16 -79 -2z"/>
<path d="M925 2474 c55 -13 111 -28 125 -32 21 -7 30 -3 56 25 17 18 28 33 23
33 -4 0 -11 -5 -14 -11 -15 -24 -53 -26 -145 -8 -135 26 -164 22 -45 -7z"/>
<path d="M2011 2486 c7 -7 123 -36 127 -32 2 2 -21 11 -51 20 -53 15 -85 20
-76 12z"/>
<path d="M2994 2365 c0 -60 1 -84 3 -52 2 32 2 81 0 110 -2 29 -3 3 -3 -58z"/>
<path d="M840 2451 c0 -11 25 -21 51 -21 10 0 19 -4 19 -10 0 -5 5 -10 11 -10
6 0 31 -13 55 -30 41 -27 44 -28 54 -11 11 22 4 31 -27 31 -13 0 -31 4 -41 9
-63 32 -122 52 -122 42z"/>
<path d="M2287 2421 c23 -22 39 -28 28 -11 -3 5 -16 15 -28 21 l-22 11 22 -21z"/>
<path d="M953 2343 c18 -5 24 -23 8 -23 -5 0 -12 -12 -16 -27 -3 -16 -25 -50
-49 -76 -40 -46 -42 -50 -36 -95 4 -26 15 -67 25 -92 26 -62 93 -180 119 -209
26 -30 150 -122 193 -144 56 -29 48 -18 -17 24 -88 57 -165 133 -207 204 -38
65 -93 204 -93 236 0 11 18 39 40 63 22 24 40 48 40 53 0 6 7 16 15 23 9 7 14
19 11 27 -3 8 -1 11 4 8 6 -3 10 -2 10 4 0 12 -33 31 -52 30 -7 -1 -5 -3 5 -6z"/>
<path d="M1146 2312 c-7 -11 59 -42 87 -41 16 1 12 4 -13 11 -19 5 -39 16 -43
24 -9 16 -23 18 -31 6z"/>
<path d="M1630 2315 c0 -15 18 -40 24 -34 3 3 -1 14 -9 25 -8 10 -14 15 -15 9z"/>
<path d="M1037 2269 c12 -12 25 -20 28 -17 3 3 -7 13 -22 23 l-28 17 22 -23z"/>
<path d="M2994 1950 c0 -168 2 -236 3 -152 2 83 2 221 0 305 -1 83 -3 15 -3
-153z"/>
<path d="M1664 2218 c-3 -5 -1 -7 4 -6 11 4 53 -45 75 -87 l16 -30 1 26 c0 15
-11 36 -29 53 -16 16 -27 34 -25 40 5 13 -35 16 -42 4z"/>
<path d="M1672 2159 c6 -16 12 -28 14 -26 5 5 -13 57 -20 57 -3 0 0 -14 6 -31z"/>
<path d="M1315 2105 c43 -36 65 -48 65 -35 0 5 -6 10 -13 10 -8 0 -24 11 -37
25 -13 14 -28 25 -34 25 -6 0 3 -11 19 -25z"/>
<path d="M2646 2080 c21 -22 39 -40 41 -40 8 0 -62 80 -70 80 -4 0 9 -18 29
-40z"/>
<path d="M1964 2062 c-46 -56 -68 -92 -59 -100 4 -4 10 -2 12 5 2 6 22 37 44
68 46 66 48 80 3 27z"/>
<path d="M1901 2047 c-17 -26 -10 -27 16 -2 14 14 18 22 9 22 -7 0 -19 -9 -25
-20z"/>
<path d="M2213 2062 c-8 -5 1 -8 22 -8 21 0 30 3 22 8 -6 4 -16 8 -22 8 -5 0
-16 -4 -22 -8z"/>
<path d="M2560 1911 c0 -11 4 -22 10 -26 5 -3 7 -11 5 -18 -2 -7 -6 -46 -9
-87 -7 -97 -23 -199 -52 -330 -21 -95 -23 -123 -9 -108 3 3 10 27 15 54 42
229 51 290 58 378 4 56 6 113 4 129 -4 31 -22 37 -22 8z"/>
<path d="M1104 1885 c-8 -31 0 -40 34 -40 21 0 27 -4 25 -21 -2 -23 37 -51 56
-40 7 4 9 1 5 -8 -3 -9 3 -19 16 -26 67 -36 122 -111 88 -122 -7 -3 -9 -11 -3
-24 4 -10 7 -23 6 -27 0 -4 -5 -49 -11 -99 -5 -50 -13 -95 -18 -100 -10 -10
-144 19 -153 33 -15 25 -112 28 -138 5 -10 -9 -23 -16 -31 -16 -10 0 -10 -3 0
-15 9 -11 8 -26 -5 -72 l-17 -57 26 -22 c21 -19 24 -27 16 -53 -8 -30 -8 -30
16 -15 29 20 30 34 4 56 -26 23 -34 59 -24 106 4 20 8 43 7 49 0 7 3 10 8 7 5
-3 9 -1 9 4 0 6 13 15 29 20 24 8 36 6 77 -17 27 -16 54 -26 61 -24 7 2 21 -1
32 -7 16 -8 21 -8 21 2 0 7 8 -2 17 -20 8 -18 13 -36 9 -39 -7 -7 -21 9 -29
32 -3 6 -7 7 -11 3 -7 -6 34 -78 44 -78 3 0 20 29 38 65 27 54 32 75 32 134 0
140 45 265 117 327 24 20 24 21 4 20 -26 -1 -89 -71 -99 -109 l-8 -29 -63 68
c-35 38 -68 79 -74 92 -6 12 -25 32 -44 43 -18 11 -33 25 -33 30 0 21 -30 7
-36 -16z m191 -535 c-3 -5 -13 -10 -21 -10 -8 0 -14 5 -14 10 0 6 9 10 21 10
11 0 17 -4 14 -10z"/>
<path d="M2040 1821 c0 -5 7 -14 15 -21 16 -14 18 -10 9 14 -6 17 -24 22 -24
7z"/>
<path d="M2124 1715 c63 -78 133 -263 148 -392 2 -14 25 -25 32 -15 8 13 -15
126 -43 217 -44 142 -70 183 -143 228 -43 27 -42 21 6 -38z"/>
<path d="M2870 1650 c0 -8 5 -22 10 -30 9 -13 10 -13 10 0 0 8 -5 22 -10 30
-9 13 -10 13 -10 0z"/>
<path d="M2993 1580 c0 -36 2 -50 4 -32 2 17 2 47 0 65 -2 17 -4 3 -4 -33z"/>
<path d="M1968 1442 c3 -177 3 -179 -41 -412 -3 -17 -27 -98 -35 -120 -3 -8
-7 -31 -10 -50 -2 -19 -9 -44 -15 -55 -6 -11 -12 -22 -13 -25 0 -3 -4 -13 -9
-23 -4 -11 -3 -23 3 -29 7 -7 12 0 17 23 4 18 11 40 16 49 4 8 18 49 30 90 12
41 27 85 35 97 10 15 11 24 3 29 -8 4 -8 9 -1 13 6 3 13 24 15 46 3 22 11 67
18 100 8 33 13 103 13 155 -1 111 -14 279 -23 284 -3 2 -5 -75 -3 -172z"/>
<path d="M1848 1525 c4 -64 -14 -155 -30 -155 -4 0 -8 -6 -8 -14 0 -7 -7 -26
-14 -42 -8 -15 -13 -31 -10 -36 23 -37 81 127 77 218 -2 32 -3 67 -4 77 0 9
-4 17 -8 17 -4 0 -6 -29 -3 -65z"/>
<path d="M1394 1542 c-11 -7 -36 -93 -30 -100 2 -2 16 18 30 44 25 44 25 72 0
56z"/>
<path d="M160 1503 c19 -8 38 -19 41 -24 3 -6 15 -6 30 0 l24 10 -26 0 c-14 1
-34 8 -45 16 -10 8 -28 14 -39 14 -14 0 -9 -5 15 -16z"/>
<path d="M833 1465 c18 -38 36 -31 21 9 -3 9 -12 16 -19 16 -10 0 -11 -5 -2
-25z"/>
<path d="M960 1435 c-14 -16 -3 -20 19 -6 8 5 9 11 3 15 -5 3 -15 -1 -22 -9z"/>
<path d="M1600 1421 c0 -11 -4 -23 -10 -26 -5 -3 -10 -19 -10 -36 0 -16 -5
-29 -11 -29 -5 0 -8 -4 -5 -9 4 -5 1 -22 -5 -38 -18 -47 -37 -153 -29 -158 5
-3 16 21 25 52 9 32 21 63 27 70 5 6 8 17 7 25 -1 7 4 27 11 43 18 42 25 125
11 125 -6 0 -11 -9 -11 -19z"/>
<path d="M2988 1400 c-3 -17 -1 -33 4 -36 4 -3 8 11 8 30 0 44 -6 47 -12 6z"/>
<path d="M2131 1378 c0 -15 3 -82 9 -150 8 -111 21 -328 22 -385 0 -13 4 -23
10 -23 5 0 7 22 4 53 -3 28 -8 115 -11 192 -8 185 -30 389 -34 313z"/>
<path d="M867 1353 c-12 -12 -7 -22 8 -17 8 4 15 10 15 15 0 11 -14 12 -23 2z"/>
<path d="M1890 1320 c-7 -12 -9 -31 -7 -42 17 -62 -114 -488 -150 -488 -7 0
-13 -5 -13 -10 0 -6 -36 -53 -80 -105 -44 -52 -80 -98 -80 -104 0 -5 -20 -26
-45 -46 -51 -43 -51 -58 1 -42 27 8 37 17 41 38 3 15 11 30 19 33 8 3 14 12
14 21 0 20 56 75 75 75 18 0 19 -12 4 -27 -14 -14 -29 -92 -19 -98 4 -2 43 80
87 183 88 205 193 540 194 619 0 18 -31 12 -41 -7z"/>
<path d="M573 1323 c-17 -6 -16 -23 1 -23 8 0 16 7 20 15 6 15 1 17 -21 8z"/>
<path d="M2972 1303 c15 -4 18 -21 21 -116 l3 -112 2 118 c2 116 2 117 -20
116 -17 -1 -18 -3 -6 -6z"/>
<path d="M2260 1278 c0 -13 -5 -75 -10 -138 -5 -63 -12 -189 -14 -280 -5 -140
-10 -179 -33 -260 -25 -90 -27 -109 -31 -347 -3 -225 -2 -253 12 -253 19 0 18
-15 17 250 0 113 4 225 10 250 16 74 40 241 43 305 9 143 17 252 22 274 6 29
16 20 20 -16 11 -130 15 -161 19 -183 5 -22 11 -242 20 -720 4 -170 3 -160 18
-160 11 0 13 36 11 187 -4 308 -15 567 -30 758 -9 99 -18 214 -21 255 -4 52
-11 79 -22 87 -23 18 -31 16 -31 -9z"/>
<path d="M1045 1270 c-9 -15 41 -23 65 -10 29 16 19 23 -14 11 -17 -7 -26 -7
-26 -1 0 13 -17 13 -25 0z"/>
<path d="M363 1215 c0 -22 2 -30 4 -17 2 12 2 30 0 40 -3 9 -5 -1 -4 -23z"/>
<path d="M290 1193 c0 -13 5 -23 10 -23 13 0 13 11 0 30 -8 12 -10 11 -10 -7z"/>
<path d="M1160 1163 c-8 -2 -21 -7 -29 -9 -8 -2 -11 -7 -8 -10 8 -8 77 7 77
17 0 10 -16 11 -40 2z"/>
<path d="M1014 1145 c-4 -8 -1 -36 5 -63 l10 -47 -4 47 c-3 26 0 50 5 53 6 3
10 10 10 16 0 15 -20 10 -26 -6z"/>
<path d="M1320 1145 c7 -8 16 -15 21 -15 5 0 6 7 3 15 -4 8 -13 15 -21 15 -13
0 -13 -3 -3 -15z"/>
<path d="M296 1121 c10 -10 21 -17 23 -15 6 6 -20 34 -32 34 -6 0 -2 -8 9 -19z"/>
<path d="M1156 1115 c-13 -14 -20 -15 -25 -6 -5 7 -25 11 -52 9 -42 -3 -44 -4
-41 -33 9 -84 34 -127 64 -108 6 3 32 7 57 7 34 1 46 5 49 18 3 14 -3 15 -36
11 -43 -6 -63 15 -36 37 10 9 14 9 14 1 0 -6 17 -11 40 -11 29 0 42 5 50 20
12 23 3 25 -48 11 -35 -11 -37 -9 -21 20 15 30 6 45 -15 24z m-23 -42 c-12
-34 -35 -63 -49 -63 -22 0 -16 15 11 30 34 18 31 31 -5 24 -18 -4 -30 -2 -30
4 0 6 15 13 33 15 17 2 35 5 39 5 4 1 4 -6 1 -15z"/>
<path d="M1330 1080 c0 -11 6 -20 14 -20 21 0 31 21 15 31 -22 14 -29 11 -29
-11z"/>
<path d="M92 1070 c0 -8 4 -26 8 -40 6 -20 8 -21 8 -5 0 11 -3 29 -8 40 -5 12
-8 14 -8 5z"/>
<path d="M2994 975 c0 -49 1 -71 3 -48 2 23 2 64 0 90 -2 26 -3 8 -3 -42z"/>
<path d="M505 1021 c3 -5 19 -14 35 -20 17 -5 28 -6 25 -2 -3 5 -19 14 -35 20
-17 5 -28 6 -25 2z"/>
<path d="M200 947 c0 -8 -12 -20 -26 -27 -23 -13 -24 -15 -7 -21 12 -4 20 0
25 13 4 11 12 17 17 14 5 -3 7 3 4 14 -6 23 -13 26 -13 7z"/>
<path d="M1101 923 c-36 -55 -26 -72 15 -24 16 19 31 27 43 24 10 -3 21 2 24
10 4 11 -3 16 -27 19 -28 3 -36 -1 -55 -29z"/>
<path d="M360 940 c0 -5 9 -10 20 -10 11 0 20 5 20 10 0 6 -9 10 -20 10 -11 0
-20 -4 -20 -10z"/>
<path d="M1131 891 c-15 -28 -14 -31 14 -31 28 0 33 21 11 39 -12 10 -17 8
-25 -8z"/>
<path d="M1554 885 c3 -8 1 -15 -4 -15 -6 0 -10 -15 -10 -32 l1 -33 18 40 c18
41 18 55 -1 55 -5 0 -8 -7 -4 -15z"/>
<path d="M2987 866 c-4 -10 -7 -25 -6 -34 0 -11 4 -9 10 7 5 13 8 29 6 35 -2
5 -6 2 -10 -8z"/>
<path d="M1070 834 c0 -18 17 -61 40 -104 22 -40 40 -76 40 -79 0 -3 19 -21
41 -40 47 -39 41 -16 -11 41 -30 32 -57 83 -91 168 -17 43 -18 44 -19 14z"/>
<path d="M1611 839 c17 -26 42 -38 34 -17 -3 7 -15 20 -27 27 -22 14 -22 13
-7 -10z"/>
<path d="M1124 839 c-3 -6 -1 -16 5 -22 8 -8 11 -5 11 11 0 24 -5 28 -16 11z"/>
<path d="M2993 740 c0 -41 2 -58 4 -37 2 20 2 54 0 75 -2 20 -4 3 -4 -38z"/>
<path d="M2193 715 c0 -22 2 -30 4 -17 2 12 2 30 0 40 -3 9 -5 -1 -4 -23z"/>
<path d="M380 728 c1 -16 30 -56 30 -41 0 7 -4 14 -10 18 -5 3 -7 12 -3 20 3
8 0 15 -6 15 -6 0 -11 -6 -11 -12z"/>
<path d="M1223 705 c8 -17 19 -48 23 -70 6 -33 51 -91 63 -80 4 5 -77 156 -91
170 -6 6 -3 -4 5 -20z"/>
<path d="M2163 645 c0 -38 2 -53 4 -32 2 20 2 52 0 70 -2 17 -4 1 -4 -38z"/>
<path d="M1830 664 c0 -9 -8 -23 -17 -30 -16 -12 -16 -13 -2 -14 19 0 43 46
29 55 -6 4 -10 -1 -10 -11z"/>
<path d="M1797 580 c-19 -23 -21 -30 -7 -30 10 0 34 39 28 46 -2 2 -12 -6 -21
-16z"/>
<path d="M2994 300 c0 -168 2 -236 3 -152 2 83 2 221 0 305 -1 83 -3 15 -3
-153z"/>
<path d="M1287 388 c-29 -144 -32 -181 -29 -305 l2 -82 40 1 c39 0 40 1 40 38
0 32 5 41 35 61 41 28 44 39 10 39 -39 0 -49 37 -36 143 5 48 18 101 27 117
16 26 16 32 3 57 -13 27 -47 62 -60 63 -3 0 -18 -60 -32 -132z m63 48 c0 -2
-7 -17 -15 -32 -15 -29 -22 -13 -9 20 5 14 24 23 24 12z m-37 -267 c11 -54 12
-67 0 -77 -11 -11 -14 -10 -18 0 -13 34 -12 159 1 145 2 -2 10 -32 17 -68z"/>
<path d="M770 485 c0 -8 5 -15 10 -15 6 0 10 7 10 15 0 8 -4 15 -10 15 -5 0
-10 -7 -10 -15z"/>
<path d="M1390 491 c0 -15 30 -21 51 -11 27 15 24 20 -16 20 -19 0 -35 -4 -35
-9z"/>
<path d="M1596 449 c-36 -36 -38 -39 -22 -55 10 -9 21 -13 25 -8 10 11 43 96
39 99 -2 1 -20 -15 -42 -36z"/>
<path d="M1780 457 c0 -8 -6 -22 -14 -29 -7 -8 -17 -25 -21 -38 -4 -14 -15
-30 -24 -37 -14 -11 -14 -12 2 -13 10 0 22 12 29 28 6 15 18 41 26 59 9 18 13
35 9 39 -4 4 -7 0 -7 -9z"/>
<path d="M1706 284 c-8 -21 -8 -24 3 -24 5 0 11 9 14 20 6 24 -8 27 -17 4z"/>
<path d="M1684 226 c-28 -27 -58 -86 -44 -86 5 0 10 4 10 9 0 5 6 16 13 23 17
18 49 69 45 73 -2 1 -13 -7 -24 -19z"/>
<path d="M1405 199 c-16 -6 -14 -8 13 -8 33 -1 41 4 20 12 -7 2 -22 1 -33 -4z"/>
<path d="M1709 158 c-7 -18 -26 -45 -41 -59 -16 -14 -25 -28 -21 -32 8 -9 63
52 63 71 0 6 4 12 9 12 5 0 11 9 14 20 8 32 -9 23 -24 -12z"/>
<path d="M1200 64 c-6 -14 -10 -35 -10 -47 1 -21 1 -21 14 3 7 14 17 35 20 48
10 31 -12 28 -24 -4z"/>
<path d="M1396 44 c-20 -20 -20 -34 -1 -34 8 0 15 5 15 10 0 6 11 10 25 10 16
0 25 6 25 15 0 20 -44 20 -64 -1z"/>
</g>
</svg>
